<svg width="491" height="329" viewBox="0 0 491 329" fill="none" xmlns="http://www.w3.org/2000/svg">
<path d="M485 150.675C485 150.675 343.028 200.581 249.056 94.0235C155.085 -12.5345 13.1127 37.3722 13.1127 37.3722M240.268 179C119.93 57.6045 5 112.907 5 112.907M263.254 5C341.676 107.512 471.479 73.7907 471.479 73.7907" stroke="#F1768A" stroke-width="10" stroke-linecap="round"/>
<circle cx="331.521" cy="165.521" r="98.5561" transform="rotate(-45 331.521 165.521)" fill="white" stroke="#F1768A" stroke-width="20"/>
<line x1="396.777" y1="240.162" x2="470.635" y2="314.02" stroke="#F1768A" stroke-width="20" stroke-linecap="round"/>
<path d="M423.337 141.53C391.184 149.201 315.48 159.883 251.581 114.809L231.983 142.593C308.243 196.385 396.48 182.892 431.227 174.602L423.337 141.53Z" fill="#F1768A"/>
<circle cx="280.335" cy="179.388" r="9.55263" fill="#F1768A"/>
<circle cx="289.019" cy="214.124" r="6.07895" fill="#F1768A"/>
<circle cx="349.809" cy="122.072" r="11.2895" fill="#F1768A"/>
<path d="M355.019 169.835C346.866 169.835 340.256 176.445 340.256 184.598C340.256 187.349 341.008 189.925 342.319 192.13C342.907 193.119 342.714 194.424 341.991 195.319C340.906 196.661 340.256 198.37 340.256 200.23C340.256 204.546 343.755 208.045 348.072 208.045C350.462 208.045 352.602 206.972 354.036 205.281C354.843 204.329 355.402 202.747 355.665 201.222C355.846 200.176 356.673 199.308 357.717 199.115C364.582 197.847 369.782 191.83 369.782 184.598C369.782 176.445 363.172 169.835 355.019 169.835Z" fill="#F1768A"/>
</svg>
