<svg width="390" height="322" viewBox="0 0 390 322" fill="none" xmlns="http://www.w3.org/2000/svg">
<path fill-rule="evenodd" clip-rule="evenodd" d="M194.065 15C112.723 15 46.7822 80.9409 46.7822 162.283H31.7822C31.7822 72.6567 104.439 0 194.065 0C283.692 0 356.349 72.6567 356.349 162.283H341.349C341.349 80.9409 275.408 15 194.065 15ZM337.076 273.671C331.945 280.307 324.052 288.563 313.452 293.756C299.185 300.745 276.786 303.746 259.003 305.129C249.904 305.837 241.637 306.143 235.647 306.273C232.648 306.338 230.213 306.359 228.52 306.364C227.673 306.366 227.011 306.364 226.557 306.362C226.33 306.361 226.155 306.359 226.034 306.358L225.894 306.357L225.856 306.356L225.845 306.356L225.841 306.356C225.84 306.356 225.839 306.356 225.933 298.857C226.026 291.357 226.026 291.357 226.025 291.357H226.026L226.031 291.357L226.056 291.358L226.169 291.359C226.271 291.36 226.428 291.361 226.636 291.362C227.052 291.364 227.674 291.366 228.479 291.364C230.088 291.359 232.428 291.339 235.321 291.276C241.114 291.151 249.091 290.855 257.84 290.174C275.752 288.781 295.464 285.864 306.853 280.285C314.593 276.494 320.812 270.182 325.209 264.496C327.375 261.695 329.018 259.151 330.109 257.325C330.654 256.415 331.056 255.691 331.314 255.212C331.443 254.973 331.535 254.796 331.59 254.688L331.625 254.62L331.645 254.58L331.646 254.578C331.646 254.58 331.645 254.581 338.378 257.885C345.111 261.188 345.11 261.19 345.109 261.192L345.107 261.196L345.102 261.206L345.09 261.232L345.053 261.306C345.023 261.364 344.984 261.442 344.935 261.538C344.836 261.73 344.698 261.994 344.521 262.324C344.166 262.982 343.653 263.903 342.984 265.022C341.649 267.256 339.674 270.311 337.076 273.671ZM194.521 95.8175C187.229 95.8175 181.319 101.728 181.319 109.02V142.708H147.175C139.884 142.708 133.973 148.618 133.973 155.91C133.973 163.201 139.884 169.112 147.175 169.112H181.319V202.8C181.319 210.091 187.229 216.002 194.521 216.002C201.812 216.002 207.723 210.091 207.723 202.8V169.112H240.956C248.247 169.112 254.158 163.201 254.158 155.91C254.158 148.618 248.247 142.708 240.956 142.708H207.723V109.02C207.723 101.728 201.812 95.8175 194.521 95.8175Z" fill="#F1768A"/>
<path d="M71.9145 133.875C69.5265 131.8 66.261 130.773 62.8995 131.349L18.9252 138.877C6.5342 140.998 -1.79114 152.762 0.330039 165.153L16.6401 260.429C18.7612 272.82 30.5257 281.146 42.9166 279.024L86.891 271.497C90.9777 270.797 94.1432 267.912 95.3935 264.246C75.7421 241.381 63.8655 211.641 63.8655 179.127C63.8655 163.219 66.7086 147.975 71.9145 133.875Z" fill="#F1768A"/>
<path d="M317.698 133.875C320.087 131.8 323.352 130.773 326.713 131.349L370.688 138.877C383.079 140.998 391.404 152.762 389.283 165.153L372.973 260.429C370.852 272.82 359.087 281.146 346.696 279.024L302.722 271.497C298.635 270.797 295.47 267.912 294.219 264.246C313.871 241.381 325.747 211.641 325.747 179.127C325.747 163.219 322.904 147.975 317.698 133.875Z" fill="#F1768A"/>
<path d="M154.004 299.312C154.004 286.992 163.991 277.005 176.311 277.005H212.731C225.05 277.005 235.038 286.992 235.038 299.312C235.038 311.631 225.05 321.619 212.731 321.619H176.311C163.991 321.619 154.004 311.631 154.004 299.312Z" fill="#F1768A"/>
</svg>
